# Exported from Wings 3D 1.5.4
mtllib journal_uv_shrink.mtl
o Cube1
#24 vertices, 22 faces
v -0.75400000 -0.10574208 -1.00000000
v -0.75400000 -0.10574208 1.00000000
v -0.75400000 0.10574208 -1.00000000
v -0.75400000 0.10574208 1.00000000
v 0.75400000 -0.10574208 -1.00000000
v 0.75400000 -0.10574208 1.00000000
v 0.75400000 0.10574208 -1.00000000
v 0.75400000 0.10574208 1.00000000
v -0.72434992 7.6092001e-2 1.00000000
v -0.72434992 -7.6092001e-2 1.00000000
v -0.72434992 -7.6092001e-2 -1.00000000
v -0.72434992 7.6092001e-2 -1.00000000
v 0.75400000 7.6092000e-2 -1.00000000
v 0.75400000 7.6092000e-2 1.00000000
v 0.75400000 -7.6092000e-2 -1.00000000
v 0.75400000 -7.6092000e-2 1.00000000
v 0.73597021 7.6092000e-2 -0.98197021
v 0.73597021 7.6092000e-2 0.98197021
v 0.73597021 -7.6092000e-2 -0.98197021
v 0.73597021 -7.6092000e-2 0.98197021
v -0.72434992 7.6092001e-2 0.98197021
v -0.72434992 -7.6092001e-2 0.98197021
v -0.72434992 -7.6092001e-2 -0.98197021
v -0.72434992 7.6092001e-2 -0.98197021
vt 0.19581290 0.42949392
vt 0.19581290 0.43314159
vt 0.19581290 0.83047276
vt 0.19581290 0.83412043
vt 0.19807407 6.9407524e-2
vt 0.19807407 0.90755087
vt 0.19818924 6.3501187e-2
vt 0.19818924 0.90795541
vt 0.20431987 0.86372041
vt 0.20431987 0.85772180
vt 0.20431987 0.89450925
vt 0.20431987 0.90050785
vt 0.28689953 0.15498471
vt 0.28689953 0.19777076
vt 0.28689953 0.19856671
vt 0.28689953 0.20456531
vt 0.28689953 0.20476106
vt 0.28689953 0.21075966
vt 0.49125501 0.43314159
vt 0.49125501 0.83047276
vt 0.49490268 0.42949392
vt 0.49490268 0.83412043
vt 0.50340965 0.86372041
vt 0.50340965 0.89450925
vt 0.50472184 0.42949392
vt 0.50472184 0.83412043
vt 0.50836950 0.43314159
vt 0.50836950 0.83047276
vt 0.50940825 0.85772180
vt 0.50940825 0.90050785
vt 0.51946151 0.85772180
vt 0.51946151 0.90050785
vt 0.52546011 0.86372041
vt 0.52546011 0.89450925
vt 0.59026622 0.95072984
vt 0.59026622 0.97371791
vt 0.59540110 0.21135987
vt 0.59540110 0.24214871
vt 0.59540110 0.24315338
vt 0.59540110 0.27394222
vt 0.59904876 0.21135987
vt 0.59904876 0.24214871
vt 0.59904876 0.24315338
vt 0.59904876 0.27394222
vt 0.67950406 0.95046790
vt 0.67950406 0.97345597
vt 0.67979746 0.95046778
vt 0.67979746 0.97345585
vt 0.69152603 0.15498471
vt 0.69152603 0.19777076
vt 0.69152603 0.19856671
vt 0.69152603 0.20456531
vt 0.69152603 0.20476106
vt 0.69152603 0.21075966
vt 0.80381162 0.42949392
vt 0.80381162 0.43314159
vt 0.80381162 0.83047276
vt 0.80381162 0.83412043
vt 0.82454989 0.85772180
vt 0.82454989 0.86372041
vt 0.82454989 0.89450925
vt 0.82454989 0.90050785
vt 0.83003415 6.9407524e-2
vt 0.83003415 0.90755087
vt 0.83490773 6.3501187e-2
vt 0.83490773 0.90795541
vt 0.88692814 0.95072984
vt 0.88692814 0.97371791
vt 0.90009190 0.97345597
vt 0.90009190 0.95046790
vt 0.90038530 0.95046778
vt 0.90038530 0.97345585
vn -0.40824829 -0.40824829 -0.81649658
vn -0.40824829 -0.40824829 0.81649658
vn -0.40824829 0.40824829 -0.81649658
vn -0.40824829 0.40824829 0.81649658
vn 0.57735027 -0.57735027 -0.57735027
vn 0.57735027 -0.57735027 0.57735027
vn 0.57735027 0.57735027 -0.57735027
vn 0.57735027 0.57735027 0.57735027
vn 0.40824829 -0.40824829 0.81649658
vn 0.40824829 0.40824829 0.81649658
vn 0.40824829 0.40824829 -0.81649658
vn 0.40824829 -0.40824829 -0.81649658
vn 0.40824829 -0.81649658 -0.40824829
vn 0.40824829 -0.81649658 0.40824829
vn 0.40824829 0.81649658 -0.40824829
vn 0.40824829 0.81649658 0.40824829
vn 0.40824829 -0.81649658 -0.40824829
vn 0.40824829 -0.81649658 0.40824829
vn 0.40824829 0.81649658 -0.40824829
vn 0.40824829 0.81649658 0.40824829
vn 0.57735027 -0.57735027 0.57735027
vn 0.57735027 0.57735027 0.57735027
vn 0.57735027 0.57735027 -0.57735027
vn 0.57735027 -0.57735027 -0.57735027
g Cube1_Cube1_auv
usemtl Cube1_auv
s 1
f 1/64/1 5/6/5 6/5/6 2/63/2
f 1/29/1 11/23/11 15/9/15 5/10/5
f 2/49/2 4/50/4 3/14/3 1/13/1
f 2/31/2 10/33/10 9/34/9 4/32/4
f 3/30/3 12/24/12 11/23/11 1/29/1
f 4/7/4 8/65/8 7/66/7 3/8/3
f 4/32/4 9/34/9 14/61/14 8/62/8
f 5/51/5 15/52/15 16/16/16 6/15/6
f 6/59/6 16/60/16 10/33/10 2/31/2
f 7/12/7 13/11/13 12/24/12 3/30/3
f 8/18/8 14/17/14 13/53/13 7/54/7
f 9/55/9 21/56/21 18/27/18 14/25/14
f 10/39/10 22/43/22 21/44/21 9/40/9
f 12/42/12 24/38/24 23/37/23 11/41/11
f 13/26/13 17/28/17 24/57/24 12/58/12
f 14/25/14 18/27/18 17/28/17 13/26/13
f 15/22/15 11/4/11 23/3/23 19/20/19
f 17/68/17 18/36/18 20/35/20 19/67/19
f 18/69/18 21/46/21 22/45/22 20/70/20
f 19/20/19 20/19/20 16/21/16 15/22/15
f 19/47/19 23/71/23 24/72/24 17/48/17
f 20/19/20 22/2/22 10/1/10 16/21/16
