# Exported from Wings 3D 1.5.4
mtllib library_collision.mtl
o Cube1
#60 vertices, 50 faces
v -3.10500000 -2.98188898 -5.99202900
v -3.10500000 -2.98188898 5.99202900
v -3.10500000 1.36548514 -5.99202900
v -3.10500000 1.36548514 5.99202900
v 3.10500000 -2.98188898 -5.99202900
v 3.10500000 -2.98188898 5.99202900
v 3.10500000 1.36548514 -5.99202900
v 3.10500000 1.36548514 5.99202900
v -1.03500000 -2.98188898 5.99202900
v 1.03500000 -2.98188898 5.99202900
v -1.03500000 1.36548514 5.99202900
v 1.03500000 1.36548514 5.99202900
v -1.03500000 0.12311102 5.99202900
v 1.03500000 0.12311102 5.99202900
v -3.10500000 -2.98188898 -2.99601450
v -3.10500000 -2.98188898 2.99601450
v -3.10500000 1.36548514 -2.99601450
v -3.10500000 1.36548514 2.99601450
v 3.10500000 -2.98188898 -2.99601450
v 3.10500000 -2.98188898 2.99601450
v 3.10500000 1.36548514 -2.99601450
v 3.10500000 1.36548514 2.99601450
v 7.02844837 1.36548514 2.99601450
v 7.02844837 -2.98188898 2.99601450
v 7.02844837 -2.98188898 -2.99601450
v 7.02844837 1.36548514 -2.99601450
v -7.02844837 -2.98188898 2.99601450
v -7.02844837 1.36548514 2.99601450
v -7.02844837 1.36548514 -2.99601450
v -7.02844837 -2.98188898 -2.99601450
v -3.00019320 -2.87708218 -5.88722220
v -3.00019320 -2.87708218 5.88722220
v -3.10500000 1.26067835 -5.99202900
v -3.00019320 1.26067835 5.88722220
v 3.00019320 -2.87708218 -5.88722220
v 3.00019320 -2.87708218 5.88722220
v 3.00019320 1.26067835 -5.88722220
v 3.00019320 1.26067835 5.88722220
v -1.03500000 -2.87708218 5.88722220
v 1.03500000 -2.87708218 5.88722220
v -1.03500000 1.36548514 5.88722220
v 1.03500000 1.36548514 5.88722220
v -1.03500000 0.12311102 5.88722220
v 1.03500000 0.12311102 5.88722220
v -3.00019320 -2.87708218 -2.89120770
v -3.00019320 -2.87708218 2.89120770
v -3.10500000 1.26067835 -2.99601450
v -3.00019320 1.26067835 2.89120770
v 3.00019320 -2.87708218 -2.89120770
v 3.00019320 -2.87708218 2.89120770
v 3.00019320 1.26067835 -2.89120770
v 3.00019320 1.26067835 2.89120770
v 6.92364157 1.26067835 2.89120770
v 6.92364157 -2.87708218 2.89120770
v 6.92364157 -2.87708218 -2.89120770
v 6.92364157 1.26067835 -2.89120770
v -6.92364157 -2.87708218 2.89120770
v -6.92364157 1.26067835 2.89120770
v -6.92364157 1.26067835 -2.89120770
v -6.92364157 -2.87708218 -2.89120770
vn -0.57735027 -0.57735027 -0.57735027
vn -0.57735027 -0.57735027 0.57735027
vn -0.57735027 0.57735027 -0.57735027
vn -0.57735027 0.57735027 0.57735027
vn 0.57735027 -0.57735027 -0.57735027
vn 0.57735027 -0.57735027 0.57735027
vn 0.57735027 0.57735027 -0.57735027
vn 0.57735027 0.57735027 0.57735027
vn 0.50000000 -0.14644661 0.85355339
vn -0.50000000 -0.14644661 0.85355339
vn 0.0000000e+0 0.0000000e+0 1.00000000
vn 0.0000000e+0 0.0000000e+0 1.00000000
vn 0.40824829 -0.40824829 0.81649658
vn -0.40824829 -0.40824829 0.81649658
vn -0.40824829 -0.81649658 -0.40824829
vn -0.40824829 -0.81649658 0.40824829
vn -0.57735027 0.57735027 -0.57735027
vn -0.57735027 0.57735027 0.57735027
vn 0.40824829 -0.81649658 -0.40824829
vn 0.40824829 -0.81649658 0.40824829
vn 0.57735027 0.57735027 -0.57735027
vn 0.57735027 0.57735027 0.57735027
vn 0.57735027 0.57735027 0.57735027
vn 0.57735027 -0.57735027 0.57735027
vn 0.57735027 -0.57735027 -0.57735027
vn 0.57735027 0.57735027 -0.57735027
vn -0.57735027 -0.57735027 0.57735027
vn -0.57735027 0.57735027 0.57735027
vn -0.57735027 0.57735027 -0.57735027
vn -0.57735027 -0.57735027 -0.57735027
vn 0.56661536 0.59340299 0.57168167
vn 0.57735027 0.57735027 -0.57735027
vn 0.58118965 -0.56424261 0.58638627
vn 0.70710678 -0.70710678 0.0000000e+0
vn -0.57827413 0.58050823 0.57324447
vn -0.57735027 0.57735027 -0.57735027
vn -0.58310615 -0.57084444 0.57803447
vn -0.70710678 -0.70710678 0.0000000e+0
vn 0.50000000 0.85355339 -0.14644661
vn -0.50000000 0.85355339 -0.14644661
vn -4.3144351e-16 0.0000000e+0 -1.00000000
vn 4.3144351e-16 0.0000000e+0 -1.00000000
vn 0.40824829 -0.40824829 -0.81649658
vn -0.40824829 -0.40824829 -0.81649658
vn 0.40756363 0.81984423 0.40217822
vn 0.40824829 0.81649658 -0.40824829
vn 0.58977615 -0.55987482 0.58198306
vn 0.57735027 -0.57735027 -0.57735027
vn -0.40824829 0.81649658 0.40824829
vn -0.40824829 0.81649658 -0.40824829
vn -0.57735027 -0.57735027 0.57735027
vn -0.57735027 -0.57735027 -0.57735027
vn -0.57735027 -0.57735027 -0.57735027
vn -0.57735027 0.57735027 -0.57735027
vn -0.57735027 0.57735027 0.57735027
vn -0.57735027 -0.57735027 0.57735027
vn 0.57735027 0.57735027 -0.57735027
vn 0.57735027 -0.57735027 -0.57735027
vn 0.58502797 -0.56980748 0.57711499
vn 0.58008813 0.57968690 0.57224196
g Cube1_default
usemtl default
s 1
f 1//1 5//5 19//19 20//20 6//6 10//10 9//9 2//2 16//16 15//15
f 2//2 9//9 13//13 11//11 4//4
f 3//3 4//4 8//8 7//7
f 3//3 7//7 5//5 1//1
f 4//4 18//18 16//16 2//2
f 5//5 7//7 21//21 19//19
f 6//6 20//20 22//22 8//8
f 7//7 8//8 22//22 21//21
f 8//8 12//12 14//14 10//10 6//6
f 9//9 39//39 43//43 13//13
f 10//10 40//40 39//39 9//9
f 11//11 12//12 8//8 4//4
f 11//11 13//13 14//14 12//12
f 13//13 43//43 44//44 14//14
f 14//14 44//44 40//40 10//10
f 15//15 17//17 3//3 1//1
f 15//15 30//30 29//29 17//17
f 16//16 27//27 30//30 15//15
f 17//17 18//18 4//4 3//3
f 17//17 29//29 28//28 18//18
f 18//18 28//28 27//27 16//16
f 19//19 25//25 24//24 20//20
f 20//20 24//24 23//23 22//22
f 21//21 26//26 25//25 19//19
f 22//22 23//23 26//26 21//21
f 24//24 25//25 26//26 23//23
f 28//28 29//29 30//30 27//27
f 31//31 33//33 47//47 45//45
f 31//31 35//35 37//37 33//33
f 32//32 46//46 48//48 34//34
f 33//33 34//34 48//48 47//47
f 34//34 38//38 42//42 41//41
f 34//34 41//41 43//43 39//39 32//32
f 36//36 40//40 44//44 42//42 38//38
f 37//37 38//38 34//34 33//33
f 38//38 52//52 50//50 36//36
f 42//42 44//44 43//43 41//41
f 45//45 46//46 32//32 39//39 40//40 36//36 50//50 49//49 35//35 31//31
f 45//45 60//60 57//57 46//46
f 46//46 57//57 58//58 48//48
f 47//47 59//59 60//60 45//45
f 48//48 58//58 59//59 47//47
f 49//49 51//51 37//37 35//35
f 49//49 55//55 56//56 51//51
f 50//50 54//54 55//55 49//49
f 51//51 52//52 38//38 37//37
f 51//51 56//56 53//53 52//52
f 52//52 53//53 54//54 50//50
f 53//53 56//56 55//55 54//54
f 57//57 60//60 59//59 58//58
